<svg
  width="51"
  height="32"
  viewBox="0 0 51 32"
  fill="none"
  xmlns="http://www.w3.org/2000/svg"
>
  <path
    d="M0.576563 19.48V16.52L12.8166 11.24V14.44L4.37656 18L12.8166 21.56V24.76L0.576563 19.48ZM28.6322 32L25.6322 21.2H25.5922V15.92H25.6322C26.4722 15.92 27.1055 15.7267 27.5322 15.34C27.9589 14.9533 28.1922 14.4133 28.2322 13.72C28.2722 13.0667 28.2989 12.3867 28.3122 11.68C28.3255 10.96 28.3255 10.2467 28.3122 9.54C28.2989 8.82 28.2722 8.13333 28.2322 7.48C28.1922 6.77333 27.9589 6.23333 27.5322 5.86C27.1055 5.47333 26.4722 5.28 25.6322 5.28H25.5922V-4.76837e-07H25.6322C28.6189 -4.76837e-07 30.7722 0.606666 32.0922 1.82C33.4255 3.02 34.1389 5.01333 34.2322 7.8C34.2589 8.54667 34.2722 9.2 34.2722 9.76C34.2855 10.32 34.2855 10.88 34.2722 11.44C34.2722 12 34.2589 12.6533 34.2322 13.4C34.1122 16.7333 33.0722 18.96 31.1122 20.08L34.8722 32H28.6322ZM16.9922 32V-4.76837e-07H22.9922V32H16.9922ZM38.1678 21.56L46.6078 18L38.1678 14.44V11.24L50.4078 16.52V19.48L38.1678 24.76V21.56Z"
    fill="#45C7AF"
  />
</svg>
